<?xml version="1.0" standalone="no"?>
<svg xmlns:xlink="http://www.w3.org/1999/xlink" id="wave" style="transform:rotate(0deg); transition: 0.3s" viewBox="0 0 1440 390" version="1.1" xmlns="http://www.w3.org/2000/svg"><defs><linearGradient id="sw-gradient-0" x1="0" x2="0" y1="1" y2="0"><stop stop-color="rgba(56.253, 227.479, 86.928, 1)" offset="0%"/><stop stop-color="rgba(11, 255, 253.45, 1)" offset="100%"/></linearGradient></defs><path style="transform:translate(0, 0px); opacity:1" fill="url(#sw-gradient-0)" d="M0,195L120,175.5C240,156,480,117,720,130C960,143,1200,208,1440,214.5C1680,221,1920,169,2160,143C2400,117,2640,117,2880,104C3120,91,3360,65,3600,84.5C3840,104,4080,169,4320,208C4560,247,4800,260,5040,227.5C5280,195,5520,117,5760,130C6000,143,6240,247,6480,279.5C6720,312,6960,273,7200,260C7440,247,7680,260,7920,279.5C8160,299,8400,325,8640,279.5C8880,234,9120,117,9360,117C9600,117,9840,234,10080,253.5C10320,273,10560,195,10800,169C11040,143,11280,169,11520,149.5C11760,130,12000,65,12240,52C12480,39,12720,78,12960,97.5C13200,117,13440,117,13680,136.5C13920,156,14160,195,14400,195C14640,195,14880,156,15120,130C15360,104,15600,91,15840,84.5C16080,78,16320,78,16560,91C16800,104,17040,130,17160,143L17280,156L17280,390L17160,390C17040,390,16800,390,16560,390C16320,390,16080,390,15840,390C15600,390,15360,390,15120,390C14880,390,14640,390,14400,390C14160,390,13920,390,13680,390C13440,390,13200,390,12960,390C12720,390,12480,390,12240,390C12000,390,11760,390,11520,390C11280,390,11040,390,10800,390C10560,390,10320,390,10080,390C9840,390,9600,390,9360,390C9120,390,8880,390,8640,390C8400,390,8160,390,7920,390C7680,390,7440,390,7200,390C6960,390,6720,390,6480,390C6240,390,6000,390,5760,390C5520,390,5280,390,5040,390C4800,390,4560,390,4320,390C4080,390,3840,390,3600,390C3360,390,3120,390,2880,390C2640,390,2400,390,2160,390C1920,390,1680,390,1440,390C1200,390,960,390,720,390C480,390,240,390,120,390L0,390Z"/></svg>